<svg width="860" height="760" viewBox="0 0 860 760" fill="none" xmlns="http://www.w3.org/2000/svg">
  <defs>
    <linearGradient id="paint0" x1="100" y1="76" x2="718" y2="684" gradientUnits="userSpaceOnUse">
      <stop stop-color="#C7FF27"/>
      <stop offset="1" stop-color="#93E600"/>
    </linearGradient>
    <linearGradient id="paint1" x1="366" y1="150" x2="366" y2="638" gradientUnits="userSpaceOnUse">
      <stop stop-color="#F9FAF5" stop-opacity="0.98"/>
      <stop offset="1" stop-color="#DDE2D5" stop-opacity="0.82"/>
    </linearGradient>
    <radialGradient id="paint2" cx="0" cy="0" r="1" gradientUnits="userSpaceOnUse" gradientTransform="translate(636 168) rotate(135) scale(310 260)">
      <stop stop-color="#C7FF27" stop-opacity="0.25"/>
      <stop offset="1" stop-color="#C7FF27" stop-opacity="0"/>
    </radialGradient>
  </defs>
  <rect x="72" y="64" width="716" height="632" rx="42" fill="#10161A"/>
  <rect x="72" y="64" width="716" height="632" rx="42" stroke="#C7FF27" stroke-opacity="0.14" stroke-width="2"/>
  <circle cx="620" cy="182" r="218" fill="url(#paint2)"/>
  <path d="M108 116H340" stroke="#F7F7F2" stroke-opacity="0.14" stroke-width="2"/>
  <path d="M108 158H244" stroke="#F7F7F2" stroke-opacity="0.10" stroke-width="2"/>
  <path d="M108 200H276" stroke="#F7F7F2" stroke-opacity="0.10" stroke-width="2"/>
  <rect x="540" y="124" width="166" height="60" rx="20" fill="#111A1F"/>
  <rect x="540" y="124" width="166" height="60" rx="20" stroke="#DFFFA0" stroke-opacity="0.18"/>
  <rect x="556" y="144" width="36" height="20" rx="10" fill="#C7FF27" fill-opacity="0.12"/>
  <path d="M570 145.5L570 163.5" stroke="#C7FF27" stroke-width="3" stroke-linecap="round"/>
  <path d="M562 154.5H578" stroke="#C7FF27" stroke-width="3" stroke-linecap="round"/>
  <path d="M604 150H678" stroke="#F7F7F2" stroke-opacity="0.85" stroke-width="4" stroke-linecap="round"/>
  <path d="M604 162H653" stroke="#F7F7F2" stroke-opacity="0.40" stroke-width="4" stroke-linecap="round"/>
  <rect x="138" y="512" width="178" height="92" rx="22" fill="#111A1F"/>
  <rect x="138" y="512" width="178" height="92" rx="22" stroke="#DFFFA0" stroke-opacity="0.14"/>
  <text x="164" y="548" fill="#F7F7F2" font-size="20" font-family="Arial, sans-serif" font-weight="700">100% Personal Plan</text>
  <text x="164" y="576" fill="#B5BDC2" font-size="15" font-family="Arial, sans-serif">Dibuat untuk target dan ritme hidupmu</text>
  <g opacity="0.16">
    <path d="M156 104V656" stroke="#F7F7F2"/>
    <path d="M230 104V656" stroke="#F7F7F2"/>
    <path d="M304 104V656" stroke="#F7F7F2"/>
    <path d="M378 104V656" stroke="#F7F7F2"/>
    <path d="M452 104V656" stroke="#F7F7F2"/>
    <path d="M526 104V656" stroke="#F7F7F2"/>
    <path d="M600 104V656" stroke="#F7F7F2"/>
    <path d="M674 104V656" stroke="#F7F7F2"/>
    <path d="M748 104V656" stroke="#F7F7F2"/>
    <path d="M108 156H752" stroke="#F7F7F2"/>
    <path d="M108 236H752" stroke="#F7F7F2"/>
    <path d="M108 316H752" stroke="#F7F7F2"/>
    <path d="M108 396H752" stroke="#F7F7F2"/>
    <path d="M108 476H752" stroke="#F7F7F2"/>
    <path d="M108 556H752" stroke="#F7F7F2"/>
    <path d="M108 636H752" stroke="#F7F7F2"/>
  </g>
  <g>
    <ellipse cx="450" cy="628" rx="160" ry="28" fill="#070A0D"/>
    <ellipse cx="450" cy="628" rx="120" ry="18" fill="#0E1317"/>
  </g>
  <g>
    <circle cx="432" cy="206" r="56" fill="url(#paint0)"/>
    <path d="M394 266C394 245.013 411.013 228 432 228C452.987 228 470 245.013 470 266V304H394V266Z" fill="#D9E0D0"/>
    <path d="M398 304H466L488 392L452 650H412L376 392L398 304Z" fill="url(#paint1)"/>
    <path d="M390 318L332 420L292 410L352 292L390 318Z" fill="#D9E0D0"/>
    <path d="M474 318L532 420L572 410L512 292L474 318Z" fill="#D9E0D0"/>
    <rect x="250" y="392" width="76" height="36" rx="16" fill="#C7FF27"/>
    <rect x="538" y="392" width="76" height="36" rx="16" fill="#C7FF27"/>
    <rect x="226" y="402" width="24" height="16" rx="8" fill="#D9E0D0"/>
    <rect x="326" y="402" width="24" height="16" rx="8" fill="#D9E0D0"/>
    <rect x="514" y="402" width="24" height="16" rx="8" fill="#D9E0D0"/>
    <rect x="614" y="402" width="24" height="16" rx="8" fill="#D9E0D0"/>
    <path d="M412 648L394 706H356L378 648H412Z" fill="#D9E0D0"/>
    <path d="M486 648L504 706H542L520 648H486Z" fill="#D9E0D0"/>
    <rect x="412" y="362" width="40" height="112" rx="18" fill="#C7FF27" fill-opacity="0.18"/>
    <rect x="372" y="326" width="120" height="28" rx="14" fill="#F7F7F2" fill-opacity="0.86"/>
  </g>
  <rect x="578" y="502" width="152" height="88" rx="20" fill="#111A1F"/>
  <rect x="578" y="502" width="152" height="88" rx="20" stroke="#DFFFA0" stroke-opacity="0.14"/>
  <text x="602" y="538" fill="#F7F7F2" font-size="18" font-family="Arial, sans-serif" font-weight="700">Supportive Coaching</text>
  <text x="602" y="566" fill="#B5BDC2" font-size="14" font-family="Arial, sans-serif">Tegas, jelas, dan tidak toxic</text>
</svg>
